<?xml version="1.0" standalone="no"?>
<!DOCTYPE svg PUBLIC "-//W3C//DTD SVG 20010904//EN"
 "http://www.w3.org/TR/2001/REC-SVG-20010904/DTD/svg10.dtd">
<svg version="1.0" xmlns="http://www.w3.org/2000/svg"
 width="310.000000pt" height="310.000000pt" viewBox="0 0 310.000000 310.000000"
 preserveAspectRatio="xMidYMid meet">
<metadata>
Created by potrace 1.11, written by Peter Selinger 2001-2013
</metadata>
<g transform="translate(0.000000,310.000000) scale(0.100000,-0.100000)"
fill="#000000" stroke="none">
<path d="M411 1901 c-25 -23 -31 -37 -31 -71 0 -52 13 -76 50 -95 46 -24 78
-19 116 19 47 47 47 95 0 142 -45 45 -91 46 -135 5z m97 -73 c4 -31 -29 -48
-53 -28 -18 15 -19 46 -2 54 28 12 52 1 55 -26z"/>
<path d="M2291 1862 c-11 -20 -15 -337 -5 -377 5 -22 11 -25 49 -25 30 0 45 5
49 16 12 31 7 379 -6 392 -19 19 -76 15 -87 -6z"/>
<path d="M1436 1845 c-83 -30 -130 -99 -129 -193 1 -83 34 -135 112 -174 71
-36 129 -37 198 -3 62 31 71 50 42 82 -27 28 -32 28 -86 2 -51 -25 -90 -19
-126 17 -46 46 -44 118 4 163 28 26 104 29 137 5 25 -17 51 -12 76 15 24 27
10 50 -48 77 -58 27 -121 30 -180 9z"/>
<path d="M641 1771 c-26 -24 -31 -37 -31 -74 0 -38 5 -49 30 -70 40 -34 64
-41 103 -28 38 13 67 56 67 101 0 42 -14 67 -50 85 -45 23 -84 19 -119 -14z
m97 -53 c7 -7 12 -18 12 -25 0 -17 -35 -34 -54 -27 -16 6 -22 45 -9 57 10 11
38 8 51 -5z"/>
<path d="M203 1780 c-24 -10 -63 -65 -63 -88 0 -28 32 -79 56 -93 14 -7 42
-12 62 -12 69 2 116 90 82 154 -22 40 -88 59 -137 39z m76 -77 c12 -23 -4 -53
-29 -53 -26 0 -45 36 -29 56 16 19 46 18 58 -3z"/>
<path d="M1764 1760 c-45 -14 -58 -33 -43 -62 16 -31 30 -38 50 -27 28 14 95
11 109 -6 11 -13 6 -15 -33 -15 -87 0 -147 -40 -147 -98 0 -63 94 -122 153
-95 12 6 48 8 80 5 l57 -4 0 116 0 116 -33 36 c-30 33 -38 36 -97 40 -36 2
-79 -1 -96 -6z m122 -192 c9 -14 -23 -38 -52 -38 -27 0 -36 12 -28 34 7 19 69
22 80 4z"/>
<path d="M2062 1757 c-9 -10 -12 -55 -10 -153 l3 -139 46 -3 46 -3 5 84 c6 95
19 127 51 127 37 0 49 14 45 56 -3 37 -5 39 -33 37 -56 -4 -70 -4 -106 2 -25
5 -39 2 -47 -8z"/>
<path d="M412 1681 c-8 -4 -12 -21 -10 -37 2 -23 8 -29 27 -29 31 0 50 28 35
53 -13 20 -34 25 -52 13z"/>
<path d="M497 1683 c-15 -14 -6 -53 15 -64 18 -10 24 -8 40 11 13 17 15 26 8
41 -10 18 -50 26 -63 12z"/>
<path d="M552 1604 c-27 -19 -28 -36 -3 -58 25 -23 61 -6 61 29 0 33 -30 49
-58 29z"/>
<path d="M360 1595 c-26 -32 13 -81 48 -59 34 22 22 74 -18 74 -10 0 -23 -7
-30 -15z"/>
<path d="M202 1520 c-61 -37 -69 -105 -18 -156 43 -43 90 -46 135 -8 59 50 46
140 -24 170 -45 18 -54 18 -93 -6z m76 -62 c26 -26 8 -58 -33 -58 -19 0 -29
38 -15 55 15 18 32 19 48 3z"/>
<path d="M507 1522 c-21 -23 -21 -31 -1 -53 21 -23 64 -6 64 26 0 42 -35 58
-63 27z"/>
<path d="M644 1506 c-24 -24 -34 -43 -34 -66 0 -44 33 -87 77 -99 106 -30 175
103 91 174 -44 37 -91 34 -134 -9z m104 -69 c-2 -17 -10 -22 -33 -22 -35 0
-47 31 -20 51 25 18 57 0 53 -29z"/>
<path d="M412 1518 c-25 -25 -6 -68 30 -68 9 0 22 9 28 20 22 40 -26 80 -58
48z"/>
<path d="M1176 1424 c-4 -10 -2 -22 3 -27 14 -14 43 0 39 20 -4 24 -34 28 -42
7z"/>
<path d="M1272 1308 c3 -110 6 -133 18 -133 13 0 15 21 15 130 0 116 -2 130
-18 133 -16 3 -17 -6 -15 -130z"/>
<path d="M1507 1434 c-4 -4 -7 -23 -7 -41 0 -33 -1 -34 -35 -27 -20 3 -47 1
-63 -5 -32 -13 -62 -58 -62 -91 0 -58 63 -109 117 -96 36 9 45 9 63 5 13 -3
15 15 15 125 0 121 -7 151 -28 130z m-19 -127 c17 -13 15 -57 -5 -79 -35 -39
-98 -7 -91 48 5 46 56 62 96 31z"/>
<path d="M1804 1427 c-2 -7 -3 -66 -2 -132 l3 -118 68 -4 c64 -3 70 -2 98 26
38 39 40 97 5 138 -21 24 -31 28 -75 27 -49 0 -51 1 -51 26 0 39 -34 67 -46
37z m144 -125 c40 -51 -20 -113 -79 -82 -19 11 -27 63 -11 86 18 27 67 25 90
-4z"/>
<path d="M2757 1434 c-4 -4 -7 -21 -7 -39 l0 -31 -55 0 c-74 1 -100 -24 -100
-95 0 -45 4 -54 30 -75 31 -24 78 -31 105 -14 9 5 19 5 28 -2 26 -22 33 8 30
132 -3 115 -10 144 -31 124z m-36 -114 c5 0 14 -11 19 -25 11 -29 -2 -73 -25
-81 -27 -11 -65 6 -75 31 -18 46 16 91 58 79 8 -2 18 -4 23 -4z"/>
<path d="M913 1423 c-16 -6 -19 -243 -3 -243 6 0 13 0 18 0 4 0 9 21 12 47 l5
48 65 0 65 0 5 -50 c4 -36 9 -50 20 -50 12 0 15 22 18 123 2 79 -1 122 -8 122
-5 0 -13 0 -17 0 -5 0 -10 -21 -13 -47 l-5 -48 -44 -3 c-78 -6 -91 2 -91 53 0
45 -6 56 -27 48z"/>
<path d="M2842 1383 c-24 -27 -28 -48 -12 -58 6 -3 10 -28 10 -54 0 -75 41
-115 94 -95 26 10 18 32 -11 36 -26 3 -28 7 -31 56 -3 48 -1 53 22 62 33 12
33 28 1 40 -14 5 -25 14 -25 19 0 20 -27 17 -48 -6z"/>
<path d="M429 1381 c-15 -11 -32 -34 -39 -51 -18 -43 9 -103 57 -125 95 -45
187 75 120 158 -31 39 -100 48 -138 18z m88 -67 c8 -20 -8 -48 -30 -52 -22 -5
-42 35 -26 54 16 19 48 18 56 -2z"/>
<path d="M1176 1354 c-3 -9 -6 -48 -6 -89 0 -54 4 -76 16 -86 24 -20 34 5 34
88 0 79 -6 103 -25 103 -7 0 -16 -7 -19 -16z"/>
<path d="M1609 1341 c-81 -81 11 -207 116 -159 24 11 33 46 10 40 -60 -15 -78
-14 -98 7 l-21 21 72 0 c84 0 95 11 68 66 -28 60 -100 72 -147 25z m92 -21
c32 -18 21 -30 -26 -30 -47 0 -58 12 -27 29 22 13 29 13 53 1z"/>
<path d="M2040 1356 c-16 -16 -13 -161 5 -176 24 -20 35 -1 35 61 0 56 2 61
30 77 43 24 35 47 -18 48 -23 0 -46 -4 -52 -10z"/>
<path d="M2194 1360 c-27 -11 -35 -22 -25 -38 5 -9 15 -10 38 -1 23 8 37 7 53
-1 28 -15 16 -30 -23 -30 -46 0 -77 -25 -77 -60 0 -41 33 -61 96 -57 67 4 74
10 74 67 0 56 -14 98 -38 116 -19 15 -67 17 -98 4z m86 -118 c0 -15 -24 -32
-46 -32 -25 0 -39 14 -29 30 7 12 75 14 75 2z"/>
<path d="M2383 1363 c-20 -7 -18 -179 2 -187 20 -7 35 24 35 76 0 49 7 63 36
72 34 11 53 -14 57 -75 4 -64 12 -80 32 -72 18 6 21 109 4 147 -16 35 -61 52
-104 39 -18 -6 -37 -7 -42 -3 -4 4 -14 5 -20 3z"/>
</g>
</svg>
